<?xml version="1.0" standalone="no"?>
<!DOCTYPE svg PUBLIC "-//W3C//DTD SVG 20010904//EN"
 "http://www.w3.org/TR/2001/REC-SVG-20010904/DTD/svg10.dtd">
<svg version="1.0" xmlns="http://www.w3.org/2000/svg"
 width="512.000000pt" height="512.000000pt" viewBox="0 0 512.000000 512.000000"
 preserveAspectRatio="xMidYMid meet">
<metadata>
Created by potrace 1.11, written by Peter Selinger 2001-2013
</metadata>
<g transform="translate(0.000000,512.000000) scale(0.100000,-0.100000)"
fill="#000000" stroke="none">
<path d="M3853 5033 c-37 -32 -74 -63 -81 -70 -7 -7 -34 -29 -60 -50 -26 -21
-49 -41 -52 -44 -3 -3 -43 -39 -90 -79 -47 -40 -96 -82 -110 -94 -14 -11 -47
-39 -74 -61 -27 -22 -63 -53 -80 -68 -38 -35 -53 -48 -136 -118 -36 -30 -71
-59 -78 -66 -7 -7 -34 -29 -60 -50 -25 -21 -56 -47 -68 -58 -12 -11 -32 -29
-45 -40 -43 -35 -154 -130 -159 -135 -3 -3 -32 -28 -65 -55 -33 -28 -62 -52
-65 -56 -3 -3 -70 -60 -150 -128 -80 -68 -156 -133 -170 -144 -28 -25 -148
-127 -229 -196 -30 -25 -77 -66 -105 -90 -64 -55 -79 -68 -196 -166 -52 -44
-97 -83 -100 -86 -3 -3 -35 -30 -72 -61 -36 -31 -79 -67 -95 -81 -43 -37 -256
-219 -368 -313 -55 -47 -111 -95 -125 -107 -14 -13 -54 -47 -90 -77 -36 -30
-67 -57 -70 -60 -3 -3 -79 -69 -170 -145 -91 -77 -176 -150 -190 -161 -99 -86
-274 -236 -316 -271 -27 -23 -60 -51 -74 -63 -14 -12 -35 -30 -47 -41 -13 -10
-23 -28 -23 -38 0 -19 43 -61 62 -61 9 0 135 -43 383 -130 61 -22 281 -98 490
-170 416 -144 570 -197 763 -264 70 -25 186 -65 257 -89 72 -25 236 -82 365
-127 129 -45 312 -108 405 -140 94 -33 262 -91 375 -130 113 -40 237 -82 275
-95 39 -13 104 -36 145 -51 41 -14 138 -48 215 -74 77 -27 246 -85 375 -130
129 -45 307 -106 395 -137 88 -30 197 -68 242 -83 75 -26 84 -27 98 -13 15 14
15 27 -2 108 -2 11 -10 54 -18 95 -8 41 -17 89 -20 105 -8 44 -43 235 -50 270
-2 17 -7 41 -10 55 -2 14 -16 86 -30 160 -14 74 -34 180 -45 235 -11 55 -22
118 -25 140 -4 22 -8 48 -11 57 -3 10 -7 30 -10 45 -2 16 -13 75 -24 133 -11
58 -22 116 -24 130 -3 14 -9 50 -15 80 -6 30 -13 70 -16 89 -3 19 -7 37 -9 40
-2 3 -7 29 -10 56 -4 28 -9 57 -11 65 -2 8 -7 31 -10 50 -3 19 -12 67 -20 105
-8 39 -16 84 -19 100 -8 46 -24 134 -36 195 -6 30 -13 69 -16 85 -3 17 -14 75
-24 130 -23 119 -21 108 -59 314 -17 90 -33 171 -35 180 -3 9 -8 34 -11 56 -3
23 -8 52 -10 65 -4 21 -18 95 -41 215 -2 11 -6 31 -9 45 -3 14 -8 43 -11 65
-3 22 -7 42 -9 45 -2 3 -6 26 -10 50 -3 25 -10 61 -15 80 -5 20 -12 51 -14 70
-3 19 -28 157 -56 305 -28 149 -53 284 -56 300 -2 17 -18 98 -34 180 -16 83
-43 229 -61 325 -17 96 -36 181 -42 188 -17 21 -34 14 -104 -45z"/>
<path d="M4710 4576 c-52 -34 -300 -177 -335 -193 -16 -7 -43 -22 -60 -33 -16
-10 -48 -28 -70 -40 -66 -36 -77 -50 -71 -90 2 -19 7 -42 10 -50 3 -8 7 -28
10 -45 7 -48 51 -287 61 -335 7 -35 13 -66 25 -132 12 -69 12 -66 44 -238 14
-74 28 -148 31 -165 3 -16 10 -52 15 -80 5 -27 16 -84 24 -125 8 -41 17 -88
20 -105 4 -25 56 -304 71 -383 2 -12 9 -49 15 -82 15 -81 14 -77 60 -320 23
-118 43 -226 45 -240 6 -32 33 -178 40 -210 3 -14 10 -52 16 -85 5 -33 19
-105 29 -160 11 -55 22 -113 25 -130 3 -16 7 -41 10 -55 3 -14 13 -65 23 -115
17 -84 20 -90 43 -90 l24 0 -2 1749 c-2 1278 -6 1753 -14 1762 -16 20 -49 16
-89 -10z"/>
<path d="M1033 1298 c-6 -7 -42 -67 -82 -133 -39 -66 -76 -127 -81 -135 -6 -8
-41 -67 -79 -130 -179 -297 -253 -418 -278 -456 -170 -253 -184 -284 -147
-315 17 -14 315 -23 1176 -34 268 -3 531 -8 585 -10 54 -2 327 -7 607 -10 281
-4 513 -8 517 -10 3 -3 138 -5 300 -6 162 0 460 -5 663 -10 260 -7 372 -7 380
1 17 17 -5 41 -50 58 -39 14 -395 137 -674 234 -279 97 -367 127 -585 203
-121 42 -245 85 -275 95 -30 10 -154 53 -275 95 -121 42 -231 81 -245 85 -14
4 -117 40 -230 80 -113 39 -223 77 -245 84 -33 11 -524 182 -853 297 -92 32
-115 35 -129 17z"/>
</g>
</svg>
