<svg xmlns="http://www.w3.org/2000/svg" viewBox="0 0 738.05 865.39"><title>android</title><g id="Calque_2" data-name="Calque 2"><g id="icones"><g id="android"><path d="M53.77,282.16H51.58A51.75,51.75,0,0,0,0,333.73V558.18A51.73,51.73,0,0,0,51.58,610H53.8a51.84,51.84,0,0,0,51.6-51.84V333.73A51.86,51.86,0,0,0,53.77,282.16Z"/><path d="M130.09,645a47.4,47.4,0,0,0,47.43,47.34H228.2v121.3a51.82,51.82,0,0,0,51.55,51.72h2.19a51.83,51.83,0,0,0,51.69-51.72V692.37h70.79v121.3a51.89,51.89,0,0,0,51.66,51.72h2.19a51.81,51.81,0,0,0,51.58-51.72V692.37h50.71A47.39,47.39,0,0,0,607.9,645V290.43H130.09Z"/><path d="M487.9,75.39l40.35-62.11a8.46,8.46,0,0,0-2.51-11.82A8.35,8.35,0,0,0,514,3.88L472.26,68.21a275.21,275.21,0,0,0-206.39,0L224.25,3.88a8.63,8.63,0,0,0-14.48,9.4l40.35,62.08c-72.63,35.57-121.61,102.55-121.61,179.56,0,4.74.29,9.44.69,14H608.93c.41-4.58.61-9.28.61-14C609.57,177.91,560.56,110.93,487.9,75.39ZM257.82,186.62a23.07,23.07,0,1,1,23.2-23A23.13,23.13,0,0,1,257.82,186.62Zm222.38,0a23.07,23.07,0,1,1,23.07-23A23.18,23.18,0,0,1,480.2,186.62Z"/><path d="M686.41,282.16h-2.1a51.83,51.83,0,0,0-51.64,51.57V558.18A51.84,51.84,0,0,0,684.31,610h2.16a51.81,51.81,0,0,0,51.58-51.84V333.73A51.77,51.77,0,0,0,686.41,282.16Z"/></g></g></g></svg>