<svg xmlns="http://www.w3.org/2000/svg" viewBox="0 0 671.42 816.52"><title>backbone</title><path d="M321.24,183.06c-16-9.36-32.51-18.7-48.45-27.74l-19.14-10.87-47.2-26.89Q103.23,58.78,0,0V815.58l5.78-3.28c103.14-58.69,209.79-119.38,314.59-179.22a28.92,28.92,0,0,1,14.47-4.1,29.54,29.54,0,0,1,15,4.35c14.59,8.5,29.57,17,44.05,25.21q8,4.55,16,9.1l72.93,41.52Q569.6,758.59,656.42,808l15,8.51V.86C571.52,57.71,460.27,121,352.23,182.7,341.62,188.75,331.2,188.87,321.24,183.06ZM80.55,130.47,262.47,233.91,80.55,337.41Zm-.66,546.1v-197l173,98.54ZM591,675.37,418.43,577.19,591,478.88Zm.43-546.24V336.88L408.89,233Zm-121.39,234,46.43,26.4a39.89,39.89,0,0,1,5.37,3.8c.41.33.86.7,1.36,1.07L542.51,409,522.94,423.3c-.54.39-1,.76-1.46,1.1a42.26,42.26,0,0,1-5,3.47l-44.89,25.57c-38.68,22-78.69,44.8-117.92,67.36a33.88,33.88,0,0,1-17.06,4.94,34.33,34.33,0,0,1-17.28-5c-41-23.6-82.82-47.38-123.28-70.38l-41.59-23.65a50.2,50.2,0,0,1-4.23-2.77l-1.87-1.3-23.09-15.77,23.89-14.53c1.7-1,3.31-2,4.88-3,3.4-2.11,6.61-4.09,10-6l51.85-29.52c33.94-19.32,69-39.29,103.5-59,10.25-5.86,20.62-5.87,30.82,0C390.07,317.63,430.74,340.74,470.06,363.1Z"/></svg>