<svg xmlns="http://www.w3.org/2000/svg" viewBox="0 0 736.61 736.61"><title>bootstrap</title><path d="M286.23,518.52h123.5a65.31,65.31,0,0,0,43.95-15.23,56.34,56.34,0,0,0,17-42.52l0-.37,0-.37a54.15,54.15,0,0,0-16.84-41.21,66.57,66.57,0,0,0-45.89-14.45l-.63,0H286.23Z"/><path d="M437.65,242.48a62.07,62.07,0,0,0-38.16-10.89H286.23v98.47h113a57.49,57.49,0,0,0,31.38-8.59l4.74-4.22a45,45,0,0,0,15.09-36.2l0-.81.09-.8A45.59,45.59,0,0,0,437.65,242.48Z"/><path d="M613.84,0H122.77A122.78,122.78,0,0,0,0,122.77V613.84A122.77,122.77,0,0,0,122.77,736.61H613.84A122.76,122.76,0,0,0,736.61,613.84V122.77A122.77,122.77,0,0,0,613.84,0ZM568.29,469a129.59,129.59,0,0,1-12.49,52.17,102.37,102.37,0,0,1-31.18,41.88,148,148,0,0,1-52.9,27,244.48,244.48,0,0,1-69.07,10c-1.76,0-3.53,0-5.29-.06H190.11V150.21H408.58a159.08,159.08,0,0,1,98,28.19l.52.39a103.54,103.54,0,0,1,38.77,88,104.23,104.23,0,0,1-15.64,60.75l-.34.52a113.54,113.54,0,0,1-27.49,27.27,104.21,104.21,0,0,1,43.38,34.41l.27.38A134.59,134.59,0,0,1,568.29,469Z"/></svg>