<svg xmlns="http://www.w3.org/2000/svg" viewBox="0 0 736.61 736.61"><title>bootstrap</title><g id="Calque_2" data-name="Calque 2"><g id="icones"><g id="bootstrap"><path d="M460.38,411.27a76.77,76.77,0,0,0-53.1-16.88h-131V528.52h133.2a75.52,75.52,0,0,0,50.95-17.8,66.27,66.27,0,0,0,20.26-50.34A64.18,64.18,0,0,0,460.38,411.27ZM442,324.72a55.24,55.24,0,0,0,18.41-44.19,55.9,55.9,0,0,0-16.26-45.74A71.85,71.85,0,0,0,399,221.6H276.23V340.07H399a67.52,67.52,0,0,0,44.19-15.35ZM613.84,0H122.77A122.78,122.78,0,0,0,0,122.77V613.84A122.77,122.77,0,0,0,122.77,736.61H613.84A122.76,122.76,0,0,0,736.61,613.84V122.77A122.77,122.77,0,0,0,613.84,0ZM546.63,517.16a92,92,0,0,1-28.24,38.06A138.8,138.8,0,0,1,469,580.39a234.78,234.78,0,0,1-71.52,9.51H200.11V160.21H408.82a148.25,148.25,0,0,1,92.08,26.4,93.61,93.61,0,0,1,35,80.1,94.92,94.92,0,0,1-14.12,55.56,103.49,103.49,0,0,1-45.43,35.91h0a93.63,93.63,0,0,1,61.39,37.44,125.24,125.24,0,0,1,20.56,73.05A120.37,120.37,0,0,1,546.63,517.16Z"/></g></g></g></svg>