<svg xmlns="http://www.w3.org/2000/svg" viewBox="0 0 790.15 754.72"><title>cordova</title><g id="Calque_2" data-name="Calque 2"><g id="icones"><g id="cordova"><path d="M527.06,754.72H262.91c-1.52-18-3-35.81-4.55-53.61-1.37-16-2.65-32.07-4.37-48.06-.24-2.14-2.8-5.73-4.34-5.76-19.46-.39-38.92-.26-59.73-.26,3,36.32,5.86,71.64,8.79,107.5H71.76C69.45,740.36,67,726.1,64.82,711.8c-5.57-36.48-10.94-73-16.54-109.47-6.4-41.69-13-83.36-19.45-125Q18.13,408.11,7.53,338.93C5.1,323.3,2.33,307.72.08,292.06a13,13,0,0,1,1.94-8Q88.69,145.12,175.5,6.25c2.87-4.61,6-6.25,11.36-6.24Q395.08.24,603.29,0c5.46,0,8.54,1.76,11.36,6.29q86.67,139,173.49,277.83a12.87,12.87,0,0,1,1.93,7.95C777.79,371.54,765.22,451,752.92,530.42c-8.67,56-17,112.09-25.54,168.12-2.86,18.73-6,37.41-9,56h-127c2.94-35.7,5.83-70.85,8.8-107-3.23-.2-5.75-.48-8.27-.49-15.56-.06-31.14.24-46.7-.22-6.57-.19-9.14,1.42-9.66,8.5-2.28,31.3-5.21,62.56-7.92,93.83C527.53,750.73,527.33,752.27,527.06,754.72Zm-196-610.55a44.84,44.84,0,0,0-5-.66c-35.1,0-70.2,0-105.3-.19-5.3,0-7.33,2.74-9.33,6.76-22,44.13-44.16,88.17-66,132.36a21.13,21.13,0,0,0-2,11.31c6,49.22,12.25,98.4,18.42,147.6,5,39.51,10,79,14.72,118.55,1.9,16,1.49,16.09,17.5,16.1h316.7c31.14,0,62.29-.16,93.43,0,5.18,0,7.66-1.41,8.14-6.86.71-8.13,2.16-16.2,3.17-24.31q8.63-69.09,17.18-138.17c4.71-37.69,9.58-75.36,14-113.07a22.84,22.84,0,0,0-2.38-12c-21.65-43.72-43.66-87.26-65.27-131-2.78-5.63-6.23-7.35-12.26-7.3-33.25.28-66.5.16-99.76.23-2.48,0-4.95.37-8,.61,2.45,18.16,4.77,35.28,7.14,52.86H323.92Z"/><ellipse cx="283.42" cy="418.76" rx="18.21" ry="65.72"/><ellipse cx="511.46" cy="418.76" rx="18.21" ry="65.72"/></g></g></g></svg>