<svg xmlns="http://www.w3.org/2000/svg" viewBox="0 0 811.12 878.86"><title>electron</title><g id="Calque_2" data-name="Calque 2"><g id="icones"><g id="electron"><path d="M0,665.06c.92-3.67,1.83-7.35,2.76-11,3.59-14.23,12.1-24.85,24-33.09,1.2-.83,2.52-2.63,2.48-3.94C28,584.57,35.93,554.1,49,524.74c15.22-34.25,35.75-65.18,60.38-93.2,17.29-19.68,35.25-38.91,54.37-56.79,35.22-32.92,74.14-61.17,115.19-86.48a838.06,838.06,0,0,1,80.55-43.69c27.75-13.18,56.1-25,85.43-34.09,21-6.52,42.35-11.79,63.61-17.41,6.72-1.78,12.24,1.91,14,8.64,1.43,5.6-1.85,11.05-8.37,12.83-12.69,3.45-25.7,5.85-38.17,10-25,8.24-49.92,16.78-74.46,26.27-17.14,6.63-33.88,14.48-50.31,22.76a779.3,779.3,0,0,0-141,90.81A635.47,635.47,0,0,0,136.6,433.8c-26.89,30.07-50.37,62.56-67,99.52-8.4,18.62-14.83,37.91-16.73,58.43-.61,6.53-.84,13.1-1.26,19.9,4.3.51,7.95,1,11.61,1.37a55.15,55.15,0,0,1,48.31,45.26c5.55,31.61-15.1,60.19-47,65.16C33,728.33,3.73,704.81,1.19,673.58A12.13,12.13,0,0,0,0,670.47Zm89.72,3.58c1.32-17.91-14.94-34-33.24-33.79a33.65,33.65,0,0,0-33.39,33.52c.05,18.27,15,32.73,33.17,33.3C74.9,702.25,91,685.13,89.72,668.64Z"/><path d="M400.54,878.86c-3.71-.69-7.39-1.53-11.13-2.05-26.08-3.62-48.21-15.68-68.09-32.25-25.71-21.42-44.87-48.08-60.95-77.18a435.07,435.07,0,0,1-29.07-65.13c-2.54-7.15,0-13.08,6-15.28s12.47.74,14.78,7.25A427,427,0,0,0,283,762c12.34,21.77,26.95,41.86,45.26,59,17.81,16.69,38.14,29,62.49,33.49,19.13,3.52,37.59.62,55.21-7.4,27.11-12.34,47.57-32.48,64.84-56.19,5.29-7.26,10.18-14.8,15.19-22.26,4.36-6.5,9.83-8.23,15.58-4.78,5.93,3.55,7.69,9.81,3.39,16.28-8.29,12.45-16.6,25-26,36.6-14.49,18-31.56,33.29-51.76,44.8-15.81,9-32.69,14.73-50.93,16.15a11.67,11.67,0,0,0-3.12,1.18Z"/><path d="M457.4,81.79c-5.81,6.26-10.69,12.59-16.63,17.7-16.52,14.21-42.56,16.13-61.49,5S350.37,76.84,350.55,55C350.8,26.65,372.29,3.6,400.28.36c30.42-3.52,58.28,19.33,61.37,48.22.08.74.65,1.5.52,2.17-1.46,7.67,4.07,9.94,9.31,13.11,19.71,11.93,36.07,27.67,50.45,45.57a326.49,326.49,0,0,1,37.23,58.68,445.45,445.45,0,0,1,31.5,80.62c5.74,20.74,11.31,41.58,15.64,62.65,3.82,18.56,6.36,37.43,8.45,56.28,2.2,19.76,3.7,39.64,4.56,59.5.9,20.84,1.59,41.76.7,62.58-1,24-3.51,48-6,72a593.4,593.4,0,0,1-16.3,87.66c-2.6,10-5.5,19.9-8.5,29.77-1.79,5.93-6,8.56-11.86,8.12a10.58,10.58,0,0,1-10-9.39c-.3-3.24.89-6.73,1.9-10,9.11-29,15.33-58.75,19.94-88.77,2.56-16.68,4.41-33.51,5.59-50.35,1.56-22.25,2.61-44.56,3-66.86.31-17.22-.11-34.51-1.3-51.69-3.26-46.92-10.07-93.33-22.42-138.81-9.4-34.63-21.62-68.2-38.36-100-12.47-23.71-27.52-45.63-46.11-65C481.43,97.86,463.56,84.14,457.4,81.79ZM406.18,89c18,.88,33.53-15.23,33.57-32.75a33.39,33.39,0,0,0-33.42-33.92c-18.07-.05-33.19,14.8-33.25,32.66C373,74.32,387.25,89,406.18,89Z"/><path d="M706.59,696c-4.17-8.81-7.16-17.76-7.09-27.61a56,56,0,0,1,41.89-54.15c31.72-8.3,64,13.06,69,44.93,4.44,28.13-11.53,52.57-35.93,61.51-17.09,6.27-33.27,4.12-48.66-5-2.73-1.63-4.52-1.58-7.27,0-18.61,10.42-38.76,16.55-59.64,20.31a268.6,268.6,0,0,1-61.27,4.39c-18.49-1-37.09-2.25-55.32-5.3-23.56-3.93-47.16-8.51-70.08-15.09a706.82,706.82,0,0,1-77.11-26.74c-27.74-11.56-54.93-24.71-81.46-38.85a695,695,0,0,1-109-71.9c-17-13.71-33.38-28.29-49.54-43-10.85-9.89-20.87-20.71-31.16-31.21-4.71-4.8-4.68-12.08-.21-16.13,5.14-4.63,12.12-4.26,16.82.9A634.91,634.91,0,0,0,219.93,566a795.8,795.8,0,0,0,97.54,64.86,753.51,753.51,0,0,0,141.23,62A571.72,571.72,0,0,0,543.27,713a374.53,374.53,0,0,0,78.43,4.6c26.58-1.36,52.63-5.72,77.06-17.08,2.17-1,4.25-2.22,6.35-3.37A12.2,12.2,0,0,0,706.59,696Zm15.6-27.8c-1.45,17.48,16.08,33.91,32.7,33.51,19.08-.47,33.9-14.69,33.9-33.49,0-18.6-15.08-33.35-34.1-33.29C737.44,635,721.29,650.19,722.19,668.16Z"/><path d="M28.58,314.7c.28-28.15,8.25-53.58,25.48-75.83,10.79-13.94,24.35-24.71,39.87-33.07,23.12-12.46,48-19,73.9-22.25a315.7,315.7,0,0,1,65-1.43c17.84,1.47,35.57,4.35,53.3,7,6.61,1,10,6.17,9.33,12.17-.56,4.57-5.26,10.65-12,9.66s-13.57-2.21-20.4-3c-10.83-1.26-21.68-2.62-32.56-3.27a354.36,354.36,0,0,0-35.54-.79c-30.11,1.24-59.59,5.88-86.84,19.74C88,233.87,71.75,248.41,61.48,268.87a95.7,95.7,0,0,0-9.59,36.21c-2.19,29.18,5.36,56.32,17,82.57,4.26,9.57,9.3,18.79,13.94,28.18,3.17,6.44,1.49,12.52-4.19,15.44s-11.9,1-15.32-4.95c-15.15-26.43-26.87-54.21-32-84.4C29.78,333,29.46,323.78,28.58,314.7Z"/><path d="M761,315.25c-.17-29.5-10.09-54.83-32.4-74.7-13.88-12.36-30.24-20.43-47.84-26-22.6-7.09-45.83-10.06-69.49-10.08-7.36,0-12-4.78-11.9-11.73.06-6.67,4.72-10.92,12.19-10.84,31.08.34,61.53,4.71,90.43,16.52,28.66,11.7,52.3,29.8,67.25,57.61a119.62,119.62,0,0,1,13.58,46.2c3.06,33.08-5.3,63.89-18.2,93.75-14.73,34.1-35.28,64.59-59.06,93-3.27,3.9-5.9,8.23-12.12,8a10.92,10.92,0,0,1-9.78-6.08,9.94,9.94,0,0,1,.92-11.43c7.52-9.72,15.36-19.2,22.63-29.09,19.18-26.09,35-54,45.14-84.92C757.66,349.23,761,332.53,761,315.25Z"/><path d="M406.36,501.44c-20.71.35-40.32-15.52-40.28-40.18,0-22,16.2-40,40.43-40.08a39.71,39.71,0,0,1,40,39.65C446.75,484.08,429,501.51,406.36,501.44Z"/></g></g></g></svg>