<svg xmlns="http://www.w3.org/2000/svg" viewBox="0 0 840.65 304.87"><title>ezpublish</title><g id="Calque_2" data-name="Calque 2"><g id="icones"><g id="ezpublish"><path d="M0,0H255.5V104.83C255,105,303,105,303,105c0,64.88.24,130.61.24,195.6-65.21,0-129.75-.6-195.24-.6,0-.6,0-43,0-43-34.72,0-71.73.06-108,.06ZM107.2,105.85H233.92V21.56H20.61V234.29H107.2Zm23.37,174.31H282V129.68H130.57Z"/><path d="M775,59H605.29V28.26H840.65L645.36,270.31H815.57v29.93H579.88Z"/><path d="M539.64,247.82l22.38,7C547,289,500.75,311.8,457.1,303c-57.65-11.68-76-49.3-73.06-109.93,6-68,61.42-107.74,120.36-92.68C553.4,112.85,580,164,575,211.55c-53.07,0-108.83.47-164.94.47-1,28,7,50,33.77,62.83C477,287,512,284,539.64,247.82ZM411.37,185.55H545c-1.26-35.32-31.09-63-66.16-63.5C442.44,121.51,413.71,147.57,411.37,185.55Z"/></g></g></g></svg>