<svg xmlns="http://www.w3.org/2000/svg" viewBox="0 0 395.92 881.39"><title>gulp</title><path d="M313.88,713.6l23.35-39.81s-53,21.7-141.75,21.7-141-20.86-141-20.86l26.11,43.45L89.83,855c0,14.8,48.25,26.37,107.82,26.37S305.54,869.86,305.54,855L314,714.19v-.59Zm22.58-258.76C308.22,456.53,294.12,488,280,521.13c-5.26,12.12-23.14,63.79-34.82,57.4s15.17-48.81,22.73-74.07c-8.7,6.39-40.58,31.18-48.8,7.89-13.15,11.53-41.46,17.63-38.27-12.08-7,12.67-22.8,30.22-41.83,22.55-24.71-9.37,14.51-88.54,24.24-84.72,9.77,4.44-1.95,22-5,29.16-6.83,15.38-14.62,35.18-9.37,39,8.82,7.13,33.2-25.81,33.75-26.4,4.55-6.06,17.59-45.14,28-40.65,10.47,4.92-26.11,56.59-12.48,67.05,2.79,2.21,14.06-1.1,20.89-8.77,4.41-4.41,2.87-15.43,17.59-50.61s28.06-79.18,38.16-75.87,1.8,25.82-1.88,34.63c-17,39.59-46.56,104.44-32.68,99.52s20.9-5,34.63-20.89,12.67-42.31,22-41.76c8.81.51,7.71,9.33,5.51,15.35,8.81-9.91,42.3-31.88,50-10.43,9.33,25.27-47.89,62.14-33.56,59.93,13.77-1.65,36.28-15.93,46.19-29.12l26.41-238.7s-27,22-196.88,22S.51,240.16.51,240.16L23,457.93C35.14,423.85,63.72,354.59,108.3,357.3c20.34,1.11,47.85,40.73,24.16,41.83-9.91.55-11-19.79-22.55-22.55-8.77-1.69-20.34,5-28,12.67C67.06,404.09,34,462.92,38.41,492.12c5.51,37.38,51.67-12.71,59.39-27.55,5.47-10.39,9.32-41.79,20.85-38.48,12.12,3.3-1.06,35.77-9.91,63.79-9.92,31.91-14.84,65.4-26.88,61.55s7.67-45.06,6.53-52.23C76.9,510.19,56,536.66,28.5,523.41L42.23,659.25s37.42,29.12,149.58,29.12S343,659.25,343,659.25L360.63,502c-14.29,14.32-59.38,39-62.14,11-2.17-22.55,48.95-55,35.77-55.6ZM394.3,24.55,296.65,127.38l-17.84,69.81c69.07,4.41,117.11,14.17,117.11,25.48,0,15.39-88.65,27.8-198,27.8S0,237.88,0,222.45s88.65-28,198-28c15.53,0,31,0,46.42.59L265,111.4l103.74-110c2.5-3.3,10.29-.55,17.41,5.51,7.13,5.47,11,12.64,8.78,15.94V24ZM253.5,237.36s-19.2,0-22.4-2.93a5.2,5.2,0,0,1-1.32-3.31c0-2.13,1.43-3.34,3.31-4l1.61,2.76a1.74,1.74,0,0,0-1.21.84c0,1.51,11.53,2.53,20.38,2.42s19.5-.84,19.58-2.35c0-.44-.85-.84-2.24-1.21l1.65-2.64c2.31.73,4.29,2.13,4.29,4.44,0,4-5.17,4.7-8.44,5.18-3.93.55-15.13.84-15.13.84Z"/></svg>