<svg xmlns="http://www.w3.org/2000/svg" viewBox="0 0 694.39 854.23"><title>ios</title><g id="Calque_2" data-name="Calque 2"><g id="icones"><g id="ios"><path d="M209.91,209.23c34.73-1,63.52,10.84,92.49,21.68,12.88,4.92,25.75,9.83,39.13,13.39,10.51,2.88,20.67,1.52,30.66-2.21,17.28-6.26,34.39-12.53,51.67-19C454,211.94,485,204.32,517.2,206.35c60.14,3.73,111.13,27.11,149.92,74.37,6.78,8.13,6.27,9-2.2,14.9-62.85,44.22-90.29,105-81.82,181.09,7.45,67.59,43.19,116,103.5,146.7,7.79,3.9,9.32,7.46,6.44,15.42a511.57,511.57,0,0,1-85.89,150.6C596,803,584.62,816.19,571.41,827.54c-29.65,25.24-63.19,30.83-100.62,21-19.15-5.09-36.93-13.72-55.74-20-36.25-11.86-72-9.66-107.91,1.86-18.8,6.1-36.59,14.4-55.73,19.65-37.27,10.33-68.77,1.19-96.56-24.9-47.09-44-82-96.73-108.07-155.17A526,526,0,0,1,6.46,536.51c-9.32-57.42-10-114.51,7.62-170.58C28.31,320,52.88,280.72,91,251.07,126.56,223.46,167.05,208.55,209.91,209.23Z"/><path d="M346.11,178.74C347.8,125,371.18,82,411,47.12,439.78,21.87,473.5,7.31,510.76.36c5.76-1,8.13-.17,8.3,6.27.51,63.69-23,116.21-71.65,157.54-26.26,22.36-56.24,33.37-90.63,33.71-8.47.17-12-2.2-10.84-10.84C346.45,184.5,346.11,181.62,346.11,178.74Z"/></g></g></g></svg>