<svg xmlns="http://www.w3.org/2000/svg" viewBox="0 0 713.49 297.39"><title>less</title><path d="M713.49,139.47c-22.73-3.25-31-18.66-31-32.9A299.68,299.68,0,0,1,684.26,76a308.52,308.52,0,0,0,1.83-31.51c0-37.31-13.72-44.39-39-44.39H630.74V13.62h.16c22.42,0,26.67,11.29,26.67,32.13,0,9.09-.42,18-.86,27.43-.47,9.9-1,20.14-1,31.12,0,25.54,7.86,32.39,21.44,35.59l5.4,1.27v12.91l-5.41,1.27c-13.57,3.17-21.43,10-21.43,35.59,0,10.81.48,20.69.94,30.25s.88,18.51.88,28.3c0,18.32-3.42,29.82-19.67,32.22v1h-7.16v14.65h16.31c25.32,0,39-7.08,39-44.39a305.54,305.54,0,0,0-1.86-32,294.68,294.68,0,0,1-1.78-30c0-14.16,8.31-29.61,31-33.16Z"/><path d="M147.61,245.66a78.93,78.93,0,0,0,19-2.12l-4-26.06h-1.19c-6.14,0-16.55-4.61-16.55-21.89V0H67C52.12,0,42.48,2.84,36.66,8.94c-6.23,6.54-9.26,18.13-9.26,35.45a321.32,321.32,0,0,0,1.89,32.82A289.12,289.12,0,0,1,31,106.46c0,14.16-8.31,29.61-31,33.15v18.25c22.73,3.06,31,18.44,31,32.73a273.48,273.48,0,0,1-1.75,28.73,303.38,303.38,0,0,0-1.89,32.2c0,37.32,13.72,44.39,39,44.39H82.75V282.4h-.17c-23.43,0-26.66-15.72-26.66-32.7,0-9.72.42-18.55.87-27.9.47-9.57.94-19.47.94-30.65,0-25.54-7.86-32.39-21.43-35.59l-5.39-1.27V141.38l5.4-1.27c13.57-3.17,21.42-10,21.42-35.59,0-10.81-.47-20.69-.93-30.24s-.88-18.52-.88-28.3c0-12.2,1.59-19.23,5.51-24.25,5.46-7,14.17-7.88,21.15-7.88h23V192.29C105.62,239.6,128.06,245.66,147.61,245.66Z"/><path d="M248.57,71.74a75.63,75.63,0,0,0-53.51,22.88c-15.8,16.12-24.23,38.77-23.73,63.77v.14c0,26.44,8.22,48.61,23.79,64.11,14.9,14.84,35.43,22.68,59.36,22.68,17.94,0,37.88-5.79,54.52-15.67l-11.28-19.86a79.64,79.64,0,0,1-36.19,8.94c-29.87,0-49.08-15.86-54.08-44.67l-1.42-8.2H316.44a128.56,128.56,0,0,0,1-15.06c.35-25.19-7-46.71-20.83-60.69C284.56,77.92,268.41,71.74,248.57,71.74ZM286,147H206.32l1.22-8.06c3.87-25.4,19.81-41.18,41.6-41.18,23.45,0,36.9,15.39,36.9,42.24Z"/><path d="M466.67,197.3c.08-22.86-13.52-37.56-44.09-47.7l-.32-.12c-2.58-1-5.12-1.93-7.59-2.84-16.52-6.1-32.13-11.86-32.13-27,0-10.31,7.19-21.33,27.35-21.33,12.16,0,23.68,3.84,36.66,12.32l15.54-20.57C449.8,81.52,432.21,72.3,409.21,72.3c-18.17,0-33.66,4.9-44.79,14.15a44.16,44.16,0,0,0-16.31,35c0,19.85,14,34.89,42.71,46l3.67,1.41c19.18,7.35,37.29,14.29,37.29,30.25a19.51,19.51,0,0,1-8.65,16.59c-5.15,3.52-12.43,5.3-21.65,5.3-14.58,0-29.12-5.11-44.3-15.58L341.6,228.61c16.73,11.91,39.52,19.67,58.63,19.67C441.21,248.28,466.67,228.75,466.67,197.3Z"/><path d="M611.28,197.3c0-22.88-13.59-37.59-44.09-47.7l-.39-.14c-2.64-1.06-5.28-2.06-7.84-3-16.06-6.08-31.24-11.81-31.24-26.79,0-10.31,7.19-21.33,27.35-21.33,12.16,0,23.68,3.84,36.66,12.32l15.54-20.57C595,81.52,577.38,72.3,554.39,72.3c-18.17,0-33.66,4.9-44.8,14.15a44.18,44.18,0,0,0-16.3,35c0,19.85,14,34.89,42.71,46,1.22.48,2.45.94,3.67,1.41,19.18,7.35,37.29,14.29,37.29,30.25a19.51,19.51,0,0,1-8.65,16.59c-5.15,3.52-12.43,5.3-21.65,5.3-14.6,0-29.17-5.12-44.37-15.63l-16,23.27c16.72,11.89,39.47,19.63,58.56,19.63C585.82,248.28,611.28,228.75,611.28,197.3Z"/></svg>