<svg xmlns="http://www.w3.org/2000/svg" viewBox="0 0 727.49 311.39"><title>less</title><g id="Calque_2" data-name="Calque 2"><g id="icones"><g id="less"><path d="M696.45,113.57c0-23.3,3.64-37.06,3.64-62.07,0-38.88-14.32-51.39-46-51.39H630.74V27.62h7.16c16.15,0,19.67,5.35,19.67,25.13,0,18.53-1.82,37.06-1.82,58.55,0,27.51,9,38.2,26.84,42.4v1.82c-18,4.21-26.84,14.9-26.84,42.41,0,21.48,1.82,38.88,1.82,58.55,0,20.35-4.2,25.69-19.67,25.69v.57h-7.16v28.65h23.31c31.6,0,46-12.51,46-51.39,0-25.69-3.64-38.88-3.64-62.07,0-12.51,7.73-25.7,31-26.83v-31c-23.31-.79-31-14-31-26.49ZM576.4,150c-18-7.16-34.68-11.37-34.68-23.3,0-9,7.16-14.33,20.35-14.33s25.13,5.35,38.2,14.9l23.88-31.61C609.25,84.24,588.9,72.3,561.39,72.3c-40.59,0-68.1,23.31-68.1,56.17,0,29.21,25.7,44.22,47.18,52.52C559,188.15,577,194.18,577,206.12c0,9-7.16,14.89-23.3,14.89-14.89,0-29.9-6-46-18.53l-23.88,34.67c18,14.9,45.37,25.13,68.1,25.13,47.75,0,73.44-25.13,73.44-58S599.7,157.68,576.4,150Zm-408,67.53c-4.21,0-9.55-3.63-9.55-14.89V0H74C41.72,0,27.4,12.5,27.4,51.39c0,25.69,3.64,40,3.64,62.07,0,12.51-7.73,25.69-31,26.83v31c23.31.57,31,13.75,31,26.26,0,22.06-3.64,35.24-3.64,60.93,0,38.89,14.32,51.39,46,51.39H96.75V282.4H89.58c-14.89,0-19.66-6-19.66-25.7s1.81-36.48,1.81-58.55c0-27.51-9-38.19-26.82-42.4v-1.82c18-4.2,26.82-14.89,26.82-42.41C71.73,90,69.92,72.64,69.92,53s4.2-25.13,19.66-25.13h16V199.29c0,36.5,12.5,60.37,49,60.37,11.37,0,20.35-1.82,26.83-4.2l-6-38.89a23.84,23.84,0,0,1-7,.91ZM431.79,150c-18.54-7.16-35.25-11.37-35.25-23.3,0-9,7.16-14.33,20.35-14.33s25.13,5.35,38.2,14.9L479,95.61c-14.9-11.37-35.25-23.31-62.76-23.31-40.59,0-68.1,23.31-68.1,56.17,0,29.21,25.7,44.22,47.18,52.52,18.53,7.16,36.49,13.19,36.49,25.13,0,9-7.16,14.89-23.3,14.89-14.89,0-29.9-6-46-18.53l-23.31,34.67c18,14.9,45.36,25.13,68.1,25.13,47.75,0,73.44-25.13,73.44-58S455.09,157.68,431.79,150ZM255.57,71.74c-43.65,0-85.38,36.49-84.24,93.79,0,59.12,38.88,93.79,90.15,93.79,21.49,0,45.37-7.73,63.89-20.34l-18-31.61c-13.19,7.73-25.69,11.36-38.88,11.36-23.87,0-42.4-11.36-47.18-38.87H329.58a157.18,157.18,0,0,0,1.82-22.06c.68-48.43-25.69-86.06-75.83-86.06ZM221.46,147c3.64-23.88,18-35.24,34.68-35.24,21.49,0,29.9,14.89,29.9,35.24Z"/></g></g></g></svg>