<svg xmlns="http://www.w3.org/2000/svg" viewBox="0 0 822.81 822.93"><title>next</title><g id="Calque_2" data-name="Calque 2"><g id="icones"><path id="next" d="M819.12,471.49c3.28-22.46,3.69-29.18,3.69-59.94s-.41-37.48-3.69-59.93A413.12,413.12,0,0,0,537.68,19.2c-26.34-8.54-54.39-14.41-85.74-17.95C446.05.64,413.31,0,395.55,0c-5.43,0-9.46.06-10.89.2l-1.89.18c-2.58.24-6.91.66-10.88,1C314.62,6.51,257.35,24.79,206.34,54.2a416.93,416.93,0,0,0-130,117.66C37.51,226,13.07,286.51,3.69,351.61.41,374.08,0,380.8,0,411.55S.41,449,3.69,471.48A413.15,413.15,0,0,0,285.13,803.91c26.74,8.61,55.18,14.51,86.95,18,12.13,1.33,66.52,1.33,78.65,0C500,816.48,555,800.13,602.66,776.81L381.24,478.59l-.08-.12c-39.49-58.39-73-107.79-89.68-132.1-.22,23-.45,66-.6,126.51-.31,148.41-.31,148.41-2.91,153.33-3.13,5.89-6,8.83-11.36,11.64l-.11,0c-4.62,2.32-8.6,2.55-23.59,2.55H234.07l-6.1-3.84a24.85,24.85,0,0,1-8.87-9.67l-.12-.24L216.31,621l.2-198,.3-198.94,4.41-5.55a33.31,33.31,0,0,1,9.28-7.7l.25-.12c5.61-2.74,8.56-2.82,25.4-2.82,20.65,0,26.2.79,33.33,8.59,3,3.2,116.77,175.72,121.61,183.06,66,100.1,154.48,234.08,197.84,299.71l.07.11,33.78,53.32c27.82-18.83,56.53-44.37,79.49-70.81A409.16,409.16,0,0,0,819.12,471.49ZM600.7,394.05l-.33,198.08-43-65.91L525.15,477V346.88c0-128.74.86-132.06,1.19-133.31l0-.14a26.57,26.57,0,0,1,12.86-16.29l.13-.07c5.62-2.87,8.66-3,23.84-3,14.45,0,18.5.11,23.31,2.7a26.35,26.35,0,0,1,13.13,15.51C600.35,214.59,601,216.63,600.7,394.05Z"/></g></g></svg>