<svg xmlns="http://www.w3.org/2000/svg" viewBox="0 0 835.81 835.93"><title>next</title><g id="Calque_2" data-name="Calque 2"><g id="icones"><path id="next" d="M393,481.33c-55.29-81.77-100.78-148.64-101.18-148.64s-.78,66-1,146.68c-.29,141.27-.39,147-2.15,150.29-2.55,4.81-4.51,6.77-8.63,8.93-3.14,1.56-5.88,1.86-20.69,1.86h-17l-4.51-2.84a18.42,18.42,0,0,1-6.57-7.16L229.31,626l.2-196.58.29-196.67,3-3.82a26.94,26.94,0,0,1,7.26-6c4-2,5.59-2.15,22.55-2.15,20,0,23.33.78,28.53,6.47,1.47,1.57,55.88,83.53,121,182.26S566.28,643.1,610,709.27l37,58.39.81.23c29.66-19.28,61-46.73,85.87-75.32a416.11,416.11,0,0,0,98.37-213.65c3.35-23,3.76-29.74,3.76-60.87s-.41-37.91-3.76-60.87c-22.71-157-134.4-288.82-285.87-337.67-26.72-8.66-55.15-14.63-87-18.22C451.32.47,397.32-.43,390.53.22h0C388.74.39,383,1,377.87,1.37,259.16,12.07,148,76.13,77.53,174.58A413.81,413.81,0,0,0,3.76,357.18C.41,380.14,0,386.92,0,418.05S.41,456,3.76,478.92c22.71,156.94,134.4,288.81,285.87,337.67,27.13,8.74,55.72,14.71,88.24,18.3,12.66,1.39,67.4,1.39,80.07,0C514.07,828.68,572.1,809.6,619,785.66m-29-576.6a19.8,19.8,0,0,1,9.9,11.57c.79,2.55,1,57.06.79,179.91l-.3,176.28-31.08-47.65-31.17-47.65V353.38c0-82.84.39-129.41,1-131.67a20,20,0,0,1,9.7-12.35c4-2.06,5.49-2.26,20.88-2.26,14.51,0,17.06.2,20.3,2Z"/></g></g></svg>