<svg xmlns="http://www.w3.org/2000/svg" viewBox="0 0 772.67 579.39"><title>sass</title><path d="M665.19,333a158.51,158.51,0,0,0-70,16.29C588.06,335,580.7,322.4,579.49,313c-1.44-11-3-17.5-1.33-30.53s9.3-31.51,9.18-32.83-1.69-8-17.26-8.09-29,3-30.54,7.12a148.26,148.26,0,0,0-6.39,23c-2.78,14.13-31.15,64.58-47.2,90.89-5.31-10.26-9.77-19.31-10.74-26.55-1.45-11-3-17.51-1.33-30.54s9.29-31.5,9.17-32.83-1.69-8-17.25-8.09-29,3-30.54,7.12-3.26,13.76-6.4,23.06S388,388.05,378.05,409.9c-5.07,11.1-9.41,20-12.55,26.07-.48,1-.85,1.57-1.09,2.06.36-.61.61-1.21.61-1-2.66,5.19-4.23,8.09-4.23,8.09v.12c-2.05,3.86-4.35,7.36-5.43,7.36-.73,0-2.29-10.14.36-24,5.67-29.21,19.07-74.59,18.95-76.16-.12-.84,2.53-8.69-8.81-12.92-11-4-15,2.66-15.93,2.66s-1.69,2.42-1.69,2.42,12.19-51.18-23.42-51.18c-22.21,0-53.1,24.38-68.31,46.47-9.54,5.19-30.18,16.42-51.9,28.36l-25,13.76c-.61-.6-1.09-1.21-1.69-1.81C134.73,334.11,55,301.52,58.33,239.6c1.2-22.57,9-81.83,153.4-153.77C330,26.93,424.64,43.11,440.94,79.07c23.41,51.3-50.58,146.77-173.45,160.53-46.83,5.19-71.45-12.91-77.6-19.67-6.4-7.12-7.37-7.49-9.78-6.16-4,2.17-1.45,8.45,0,12.19,3.62,9.54,18.71,26.43,44.42,34.88,22.56,7.37,77.48,11.47,143.86-14.24C443,217.87,501,137.85,484,70.87,466.64,2.8,353.79-19.53,247,18.36,183.37,40.93,114.57,76.42,65.09,122.64c-58.78,55-68.2,103-64.34,123,13.77,71.08,111.77,117.43,151,151.71-1.94,1.09-3.75,2-5.44,3-19.67,9.77-94.38,48.88-113.09,90.16-21.12,46.83,3.5,80.38,19.68,85,50.45,14,102.1-11.23,129.87-52.63s24.37-95.47,11.58-120.09c-.12-.36-.36-.6-.48-1,5.07-3,10.26-6,15.45-9.05,10-5.92,19.79-11.35,28.36-16.06-4.83,13-8.33,28.72-10.14,51.42-2.17,26.55,8.81,60.95,23.06,74.47,6.27,5.91,13.87,6,18.58,6,16.66,0,24.14-13.76,32.47-30.17,10.26-20,19.31-43.34,19.31-43.34s-11.35,63,19.67,63c11.35,0,22.7-14.6,27.76-22.09v.12s.25-.48.85-1.44c1.2-1.81,1.81-2.9,1.81-2.9v-.36c4.58-7.85,14.6-25.83,29.69-55.52,19.55-38.39,38.26-86.3,38.26-86.3s1.69,11.71,7.48,31.14c3.38,11.46,10.5,24,16.17,36.21-4.58,6.27-7.36,9.9-7.36,9.9a.39.39,0,0,0,.12.24c-3.62,4.83-7.72,10-12,15.09-15.45,18.34-33.79,39.34-36.2,45.38-2.9,7.12-2.18,12.43,3.38,16.53,4.1,3.14,11.34,3.62,18.94,3,13.88-1,23.66-4.34,28.37-6.52a99.31,99.31,0,0,0,24.38-12.79c15.09-11.1,24.26-27,23.41-48-.48-11.58-4.22-23.17-8.81-34,1.33-1.94,2.78-4,4.1-6,23.91-34.88,42.37-73.14,42.37-73.14s1.69,11.7,7.48,31.14c2.9,9.78,8.57,20.52,13.76,31C542.19,387,528.31,408.1,523.48,422c-8.93,25.71-1.93,37.3,11.23,40,5.91,1.2,14.36-1.58,20.64-4.23a95.93,95.93,0,0,0,26.07-13.4c15.09-11.1,29.69-26.67,28.73-47.79-.37-9.54-3-19.07-6.52-28.25,18.94-8,43.57-12.31,75-8.69,67.23,7.85,80.38,49.85,77.85,67.35s-16.66,27.28-21.36,30.18-6.16,4-5.8,6.15c.61,3.14,2.78,3,6.76,2.29,5.56-1,35.24-14.24,36.57-46.71,1.93-41-37.53-86.17-107.41-85.81ZM147,507.67c-22.21,24.26-53.35,33.43-66.74,25.7-14.37-8.32-8.69-44.05,18.7-69.88,16.66-15.69,38.14-30.17,52.39-39.1,3.25-1.93,8-4.83,13.76-8.33,1-.6,1.44-.84,1.44-.84,1.09-.73,2.3-1.33,3.5-2.06,10,36.69.36,69-23.05,94.51ZM309.26,397.35c-7.73,18.95-24,67.23-33.92,64.69-8.45-2.17-13.64-39-1.69-75.19,6-18.23,18.83-40,26.43-48.4,12.19-13.64,25.59-18,28.73-12.55,4.22,7.12-14.73,59.62-19.55,71.45Zm134,64c-3.26,1.69-6.28,2.77-7.73,1.93-1.08-.6,1.33-2.9,1.33-2.9s16.77-18,23.41-26.19c3.87-4.83,8.33-10.5,13.16-16.77,0,.59.12,1.2.12,1.92C473.4,440.92,452.64,455.53,443.23,461.32Zm103.31-23.54c-2.41-1.69-2-7.36,6-25,3.14-6.88,10.38-18.47,22.93-29.57a43.56,43.56,0,0,1,2.29,13c-.12,27.16-19.55,37.3-31.26,41.52Z"/></svg>