<svg xmlns="http://www.w3.org/2000/svg" viewBox="0 0 830.94 735.17"><title>sentry</title><g id="Calque_2" data-name="Calque 2"><g id="icones"><path id="sentry" d="M819.28,698.9c15.55-25.84,15.55-51.81,0-77.62l-336.62-585C467.26,10.41,441.3,0,415.46,0s-51.8,15.55-67.2,36.25L239.39,227.88l26,15.39a513.27,513.27,0,0,1,196.8,196.8c41.36,72.49,67.2,150.11,72.47,233H456.85c-5.12-67.33-25.84-134.69-62.09-196.74-36.24-72.5-93.16-129.44-165.66-171l-26-15.4L99.69,466l25.84,15.4c67.32,41.37,113.86,108.75,124.29,186.51H79c-5.11,0-10.41-5.29-10.41-5.29s-5.11-5.12,0-10.26l46.66-82.91c-15.55-15.4-36.25-25.83-56.91-31L11.67,621.28c-15.56,26-15.56,51.81,0,77.77s36.24,36.12,67.19,36.12H317V704.22c0-56.94-15.39-108.75-41.36-160.55-20.7-41.36-51.8-72.49-87.89-98.33L224,378c46.51,36.25,88.05,77.61,119,129.41,36.25,62.09,51.81,129.42,51.81,196.8v30.95H596.73V704.22c0-103.63-26-207.21-82.89-300.37C472.48,320.94,405.1,253.74,327.49,201.94L405.1,67.36c5.3-5.12,10.41-5.12,10.41-5.12,5.12,0,5.12,0,10.41,5.12L762.41,652.29c5.12,5.11,0,10.38,0,10.38s-5.16,5.17-10.41,5.17H674.39v62.21H752c31.08,5.12,51.8-5.29,67.33-31.13Z"/></g></g></svg>