<svg xmlns="http://www.w3.org/2000/svg" viewBox="0 0 936.91 812.91"><defs></defs><title>tailwind</title><path d="M239.14,328.47c8.05-32.33,19.09-60.38,35.6-86.29,36.74-57.66,90.72-85.61,157.38-92.33,38.38-3.87,76.17-1.71,113.26,9.29a229.81,229.81,0,0,1,90.39,51.35c24.84,22.68,48.42,46.74,73.36,69.31,45.27,41,122.49,42.9,175-7.36,10.29-9.84,19.77-20.52,31.3-32.56-7.44,29.71-17.23,55.92-31.87,80.23-36.78,61.08-92,91.55-161.93,98.13C671.59,423,623.1,418.07,577,396.61c-27.95-13-51.74-31.94-73.89-53-18.82-17.89-36.62-36.89-56-54.1C397,245.08,320,246.11,267.07,299,258.13,307.87,249.7,317.29,239.14,328.47Z"/><path d="M687.63,512.27c-8.42,41.33-24.81,78.48-52.59,109.91-41.4,46.84-95.07,65.46-156,67.37-38.8,1.21-76.86-1.76-113.35-16.59-30.14-12.25-56.59-30-80.2-52.12-23.39-21.92-45.13-45.85-70.09-65.77-48.69-38.86-116.63-35.68-163.68,5.49-12.68,11.1-24.7,23-38.1,35.5,4.77-13.95,8.79-27.58,14-40.73,17.18-43,42.92-79.41,82.91-104.35,29.18-18.19,61.39-27.53,95.29-30.85,40.53-4,80.6-1.75,119.73,11,34.84,11.36,64.85,30.53,91.43,55.31,23.68,22.08,46.08,45.62,70.73,66.53,40,34,101.31,36.75,145.8,8.86,19.25-12.07,35.56-27.24,49.76-44.84C684.67,515.35,686.19,513.85,687.63,512.27Z"/></svg>