<svg xmlns="http://www.w3.org/2000/svg" viewBox="0 0 782.37 790.24"><title>three</title><g id="Calque_2" data-name="Calque 2"><g id="icones"><g id="three"><path d="M16,.2c56.87,16.15,112.1,31.69,167.24,47.52q233.13,66.9,466.18,134.05c38.65,11.15,77.25,22.5,115.6,34.62,21.27,6.73,22.38,13.44,6.72,28.71C692.2,322.61,613,400.44,533.08,477.53Q377,628,220.09,777.61c-19.81,19-28.33,16.83-34.5-8.18q-68-275.59-136.08-551.17-24.1-97.65-48-195.37C-1.75,9.38-1-1.62,16,.2ZM168.06,601.15,206.37,758,323.8,645.87Zm-32.84-209,146.62,42.09C269,384.16,256.24,334.1,243.17,283Zm296.68-58L315.52,444.49c52.69,15,106.7,30.77,153.85,44.16M73.65,218.16l37.69,155.38L226.11,262.46Zm675.57,17.58L597,191.23c13.14,53.6,24.64,100.53,38,155Zm-685-55.14,115-109.08L25.85,26.58C39,79.23,50.74,126.47,64.22,180.6ZM608.55,371.87,454.73,329c13.34,54.14,24.94,101.19,37.68,152.87Zm-191.46-55.3-152-43.37c13.36,52.94,25.12,99.57,38.13,151.18ZM554.74,179.18C511,166.73,452,149.43,406.53,136.49c0,0,2.37,8.3,2.62,8.66,11.46,46.37,26.23,103.86,37.69,150.23M176.37,578.83,327.59,622.5c-13.15-52.62-24.78-99.1-37.92-151.64ZM385.18,140.05C351.4,173.21,311,212.86,272.43,250.68l149.33,43.16M574.9,193.41C542.09,229,503.18,270.23,468.63,307.74l142.38,41M158.77,563.87l113-108.14-150.5-43ZM366.21,124.64c-45.07-13-95.07-26.95-147.58-42.08,13.15,53.6,24.75,100.91,37.91,154.53C294.65,196.45,331.59,161.55,366.21,124.64ZM195.47,85.51c-32.28,35.33-76.83,76.05-110.27,112.64,42.61,12.24,95.19,26.44,147.39,41.44m118.3,378.86L464.36,510.52l-150.64-41.9C326.83,521.46,338.12,567,350.89,618.45Z"/></g></g></g></svg>