<svg xmlns="http://www.w3.org/2000/svg" viewBox="0 0 429.84 790.84"><title>twig</title><g id="Calque_2" data-name="Calque 2"><g id="icones"><g id="twig"><path d="M122.63,785.7c.43-3.17.94-44.23.88-47.39-.55-27.1-.41-54.24-2.15-81.27a253.51,253.51,0,0,0-21.2-87c-16.61-37.45-41.52-66.92-80.92-81.87C13,485.78,6.42,484.29,0,481.53c9,0,18.13-.87,27,.15,39.24,4.52,66.53,27.3,87.15,59.2,6.89,10.65,12.09,22.39,18.07,33.63a8.35,8.35,0,0,0,3.32,3.73c.51-7.07,1.05-14.14,1.53-21.21,1.67-24.38,2.63-48.83,5.13-73.13,4.11-39.83,8.46-79.66,14.09-119.29a982,982,0,0,1,34-152.06C208.33,154.17,235,100.37,274.12,53.18,290,34.08,307.7,17,330.9,6.8,357-4.63,381.8-1.87,403.5,16.74c9.2,7.9,16.24,18.3,24.21,27.62.69.82.93,2,2.13,2-7.75-6.95-15.07-14.48-23.39-20.67a95.83,95.83,0,0,0-22.86-13c-17.21-6.52-32.67-1.78-46.27,10s-22.2,26.85-30.61,42.19c-27.14,49.48-46,102.26-61.64,156.25C224.5,292,211,364.29,203.39,437.58c-3.87,37.15-5.4,74.55-7.95,111.83a13,13,0,0,0,1.35,7.4c2-6.75,3.92-13.52,6-20.25,11.56-37.64,25.59-74.25,46.61-107.75,12.86-20.51,27.66-39.38,48.92-52.08a68,68,0,0,1,6.27-3l.88,1.28c-3.52,4.16-7.17,8.22-10.52,12.51-19.35,24.71-32.81,52.5-43,82-13.62,39.47-21.15,80.25-25.16,121.64-4.77,49.34-6,98.82-1.95,148.31,1.08,13.08,2.4,26.15,3.71,39.21.34,3.4-.53,5.06-4.26,6-24.6,6-49.59,6.6-74.7,5.85-2.66-.07-5.32-.44-8-.73-3.49-.39-15-.74-17.72-2.92m38.3-126.73c0-6-3.83-10.06-9.77-10.24-6.14-.18-10.75,4-10.86,10a10.58,10.58,0,0,0,10.31,10.75C157.88,670.72,162.12,666.42,162.17,660.2Zm19.74,10.9c6-.1,9.88-4.1,9.9-10.15,0-6.28-4.12-10.59-10.21-10.66A10.61,10.61,0,0,0,171.19,661C171.22,666.93,175.74,671.21,181.91,671.1Z"/></g></g></g></svg>