<svg xmlns="http://www.w3.org/2000/svg" viewBox="0 0 853.28 382.96"><title>webgl</title><g id="Calque_2" data-name="Calque 2"><g id="icones"><path id="webgl" d="M610.65,290.16C405.49,468.63-3.36,364.13,0,191.93,3.45,17.43,399.85-85.85,611.3,94.35,487.37,20.16,262,30.62,156.35,103.3L186.18,232,223,99.7h28L288,232,318.51,99.7h30.56L302.12,272.12H274.94L237.25,136.69,199.09,272.12H172L132.67,122.64c-20.11,19.78-32.36,43-33.72,69.34C92.69,313.06,400.24,403.89,610.65,290.16ZM774.73,241V112.73H739.37V270.18H853.28V241ZM653.2,211.05h35.66c-2.06,23.14-16.42,31.68-32.42,33.46-32.72,3.64-49.69-20.11-49.85-52.39-.73-18.45,5.48-38.69,21.65-48.35,18.73-11.19,49.63-7.56,56.23,20.67h33.86c-10.88-80.58-147.76-76.1-147.09,27.62,3.31,91.67,98.84,97.45,123.48,60.38l3.6,17.86h22.5V185.14H653.2ZM474.1,115.47v52.89c22.59-28,80.29-17.34,80.29,42.94-.78,23-6.89,35.44-13.36,45.49-10.72,16.68-46.93,30.33-68,4.69v10.66H451.67V115.47Zm-.86,104.37c0,26.44,15.67,35.83,29.09,35.83,9.28,0,16.51-3.89,21.5-11.57,4.68-7.2,7.15-17.51,7.15-29.81-.53-16.53-2.18-28.23-12.3-35.32-10.13-7.57-26.71-6.21-34.23,1.51C477.44,187.67,472.7,200.57,473.24,219.84Zm-35.43,2.51H355.94c-.17,39.84,41.39,39.24,53.75,22.16a20.1,20.1,0,0,0,4.31-10.9h22.52c-2,9.73-4.92,16.12-9.58,22.61-11.73,16.36-32,21.66-53.81,18.1s-40.53-23.45-40.93-56.69c-3.14-48.35,42.27-80.41,83.26-55.49C429,170.35,437.91,189.75,437.81,222.35ZM414.6,204c-.39-40.68-55.71-39.57-58.64,0Z"/></g></g></svg>