<svg xmlns="http://www.w3.org/2000/svg" viewBox="0 0 736.54 801.08"><title>webpack</title><g id="Calque_2" data-name="Calque 2"><g id="icones"><g id="webpack"><polygon points="154.38 311.23 154.38 514.73 343.32 618.29 343.32 419.9 154.38 311.23"/><polygon points="141.58 564.44 33.52 626.64 343.32 801.08 343.32 674.95 141.58 564.44"/><polygon points="343.32 121.22 343.32 0 24.79 179.36 128.39 238.94 343.32 121.22"/><polygon points="104.47 528.38 104.47 282.56 0 222.48 0 588.46 104.47 528.38"/><polygon points="393.22 674.95 393.22 801.08 703.01 626.64 594.96 564.44 393.22 674.95"/><polygon points="582.16 514.73 582.16 311.23 393.22 419.9 393.22 618.29 582.16 514.73"/><polygon points="632.07 282.56 632.07 528.38 736.54 588.46 736.54 222.48 632.07 282.56"/><polygon points="178.91 267.96 368.33 376.85 557.74 267.96 368.33 164.32 178.91 267.96"/><polygon points="608.14 238.94 711.75 179.36 393.22 0 393.22 121.22 608.14 238.94"/></g></g></g></svg>