<svg xmlns="http://www.w3.org/2000/svg" viewBox="0 0 756.54 835.3"><title>webpack</title><g id="Calque_2" data-name="Calque 2"><g id="icones"><path id="webpack" d="M733.23,643.84l-340,191.46V686.13l211.86-116Zm23.31-21V222.3L632.07,293.89V551.27Zm-733.23,21,340,191.46V686.13l-211.86-116ZM0,622.85V222.3l124.47,71.59V551.27ZM14.57,196.37,363.32,0V144.25l-225,123.26Zm727.4,0L393.22,0V144.25l225,123.26ZM363.32,652.29,154.37,537.76V311l209,120.18Zm29.9,0L602.16,537.76V311L393.22,431.22ZM168.47,284.85,378.33,170,588.18,284.85,378.33,405.49Z"/></g></g></svg>